<svg width="578" height="578" viewBox="0 0 578 578" fill="none" xmlns="http://www.w3.org/2000/svg">
<g id="Frame 2">
<g id="Group 1">
<circle id="Ellipse 5" cx="289" cy="289" r="205.429" fill="white" stroke="black" stroke-width="2"/>
<circle id="Ellipse 6" cx="289" cy="289" r="185.536" fill="#00B1FD" stroke="black" stroke-width="0.5"/>
</g>
<g id="Group 2">
<path id="Vector 4" d="M106.311 226.039L144.29 264.019C155.807 275.535 174.479 275.535 185.995 264.019L206.219 243.795C217.736 232.279 236.407 232.279 247.924 243.795L268.148 264.019C279.664 275.536 298.336 275.535 309.852 264.019L330.076 243.795C341.593 232.279 360.265 232.279 371.781 243.795L392.005 264.019C403.521 275.536 422.193 275.535 433.71 264.019L471.689 226.039" stroke="white" stroke-width="14.45" stroke-linecap="round"/>
<path id="Vector 5" d="M97.0214 277.646L145.323 325.948C156.839 337.464 175.511 337.464 187.027 325.948L207.251 305.724C218.768 294.207 237.44 294.207 248.956 305.724L269.18 325.948C280.696 337.464 299.368 337.464 310.885 325.948L331.108 305.724C342.625 294.207 361.297 294.207 372.813 305.724L393.037 325.948C404.553 337.464 423.225 337.464 434.742 325.948L479.946 280.743" stroke="white" stroke-width="14.45" stroke-linecap="round"/>
<path id="Vector 6" d="M104.246 346.8L145.323 387.876C156.839 399.393 175.511 399.393 187.027 387.876L207.251 367.652C218.768 356.136 237.44 356.136 248.956 367.652L269.18 387.876C280.696 399.393 299.368 399.393 310.885 387.876L331.108 367.652C342.625 356.136 361.297 356.136 372.813 367.652L393.037 387.876C404.553 399.393 423.225 399.393 434.742 387.876L475.818 346.8" stroke="white" stroke-width="14.45" stroke-linecap="round"/>
<path id="Vector 7" d="M167.207 438.661L170.543 440.48C182.028 446.745 196.267 444.694 205.517 435.444L207.251 433.71C218.768 422.193 237.44 422.193 248.956 433.71L269.18 453.933C280.696 465.45 299.368 465.45 310.885 453.933L331.108 433.71C342.625 422.193 361.297 422.193 372.813 433.71L375.829 436.725C384.457 445.353 397.578 447.745 408.729 442.789V442.789" stroke="white" stroke-width="14.45" stroke-linecap="round"/>
</g>
</g>
</svg>
