<svg width="500" height="500" viewBox="0 0 500 500" fill="none" xmlns="http://www.w3.org/2000/svg">
	<g clip-path="url(#clip0_10_48)">
		<rect width="500" height="500" rx="20" fill="#126fa0" />
		<path d="M-12.5353 474.195C-9.55894 475.549 -7.19613 476.63 -4.96667 478.122C-0.393122 479.725 5.41837 481.266 11.3656 482.858C17.0677 483.86 22.7824 484.195 28.4791 484.082C32.7203 483.783 37.1035 483.112 40.8159 482.096C46.5454 480.406 52.0461 478.415 57.3669 475.743C62.4497 473.6 67.3594 470.787 71.9115 467.925C77.0088 464.993 82.0538 461.044 86.4588 457.001C90.1823 454.08 93.7253 450.799 96.7566 446.767C100.736 442.531 104.183 437.539 107.351 432.456C109.515 428.826 111.539 425.142 112.935 421.322C113.535 420.003 113.1 419.021 112.228 418.306C111.094 417.791 110.551 417.508 109.543 417.844C107.706 418.123 106.017 418.484 104.583 418.627L68.3494 427.283L110.076 353.512C113.543 347.769 116.284 341.831 117.625 335.121C119.196 329.789 120.032 324.472 119.782 318.629C119.548 311.999 119.047 304.136 118.404 296.524L197.436 303.953C202.861 297.669 208.63 291.069 214.338 284.914C212.91 286.174 219.624 279.711 226.461 272.955C233.76 265.933 239.059 261.356 244.614 257.041C255.463 248.61 266.881 240.879 279.191 233.749C285.275 230.151 292.298 226.36 299.533 222.49C304.128 220.284 309.264 218.037 314.95 215.691L332.492 209.444C341.286 206.283 351.067 203.897 360.476 202.767C360.165 205.33 359.86 207.952 359.609 210.384C359.593 211.172 359.593 212.28 359.396 213.464C358.698 219.511 357.967 223.781 357.765 227.985C357.617 230.941 357.455 233.868 357.307 236.824C357.503 243.915 357.188 250.62 357.563 257.315C357.596 259.876 357.617 262.577 358.015 265.463C358.162 266.643 358.237 268.317 358.525 269.563C358.951 269.756 358.814 269.97 359.098 270.099C359.098 270.099 359.229 270.642 359.654 270.836C359.817 271.228 360.2 271.43 360.2 271.43C361.192 271.881 362.254 271.55 362.777 271.151C365.508 267.779 368.059 264.011 370.082 260.316C373.975 254.767 377.813 249.68 381.809 244.655C385.724 239.435 390.714 234.822 395.157 230.319C392.06 233.366 397.891 227.668 395.157 230.319C398.194 227.404 400.758 224.748 403.189 222.035C404.034 221.305 404.625 220.754 405.333 221.076C406.042 221.399 406.021 222.176 405.901 222.439C405.781 222.703 405.771 222.726 405.771 222.726L383.016 300.594C382.596 301.517 382.494 302.558 382.074 303.481C381.354 305.063 380.325 306.508 379.606 308.09C376.438 313.173 372.715 317.667 368.288 321.382C362.291 326.292 355.745 329.865 348.788 332.747C341.931 335.038 335.222 336.873 328.277 337.851C321.735 338.694 315.179 338.436 308.67 337.702C302.668 337.359 296.329 335.92 290.501 334.065C285.808 332.725 281.025 330.859 276.49 328.796C264.91 348.988 252.83 368.351 240.356 387.5C220.391 415.971 194.98 441.429 165.465 462.691C157.473 468.603 149.469 474.571 141.171 480.025C135.916 483.681 129.513 487.605 122.661 491.012C116.392 493.888 110.374 496.512 104.688 498.859C103.674 499.25 102.644 499.63 101.599 500C96.018 501.975 90.0158 503.642 83.743 505.078C70.5451 508.144 56.4538 508.279 42.2805 505.969C36.0116 504.708 29.7699 502.962 23.2557 501.113C22.3056 500.681 21.3471 500.341 20.3625 500C19.1441 499.578 17.8855 499.153 16.553 498.547C13.8601 497.322 10.9232 495.545 8.35034 494.056C3.24276 490.618 -1.26052 486.939 -5.5231 482.772C-7.89965 480.1 -10.2787 477.131 -12.5353 474.195ZM302.938 237.852C300.239 243.785 303.433 251.13 309.952 254.096C316.613 257.127 324.107 254.643 326.806 248.71C329.505 242.777 326.453 235.496 319.792 232.466C313.272 229.5 305.637 231.92 302.938 237.852Z" fill="white" />
		<path d="M330.632 410.558C308.088 444.698 278.812 473.707 244.232 496.326L238.545 499.817L129.507 499.817L143.661 491.788L164.219 477.431L184.952 461.561L204.229 445.507L226.489 423.649C232.96 416.568 239.088 409.49 244.567 401.958L253.574 388.552L266.326 368.416L281.919 342.411L293.552 345.793C298.649 346.998 303.522 347.942 308.881 348.948C317.532 349.86 326.074 349.131 334.753 347.351L344.419 344.905C353.577 342.07 362.245 338.057 370.362 332.998L358.111 360.682L344.535 386.012L330.632 410.558Z" fill="white" />
		<path d="M269.188 496.992C268.859 497.688 268.473 498.336 267.668 499.5L323.881 499.5C324.276 498.582 324.424 497.973 324.492 497.414C324.53 497.099 324.543 496.792 324.556 496.435C324.557 496.409 324.558 496.383 324.559 496.358C324.571 496.03 324.584 495.663 324.619 495.236C324.396 486.735 323.592 478.759 322.365 470.586L322.363 470.579L322.363 470.571C321.471 463.121 319.585 456.112 316.704 449.542C313.923 452.171 311.218 454.963 308.688 457.698C302.503 465.257 295.648 472.03 288.148 478.344C282.807 483.008 277.302 487.29 271.497 491.127C271.407 491.945 271.013 492.811 270.753 493.382L270.734 493.423C270.302 494.372 270.013 495.058 269.784 495.607C269.757 495.675 269.729 495.74 269.703 495.803C269.514 496.258 269.359 496.631 269.188 496.992Z" fill="white" stroke="white" />
		<path d="M0.764316 330.089L-6.26142 318.459L-9.83594 311L-9.56866 425C-7.39846 418.349 -4.80307 411.892 -2.50756 406.094C0.911069 398.579 4.55317 391.325 8.43518 383.543C13.1786 374.244 18.5925 365.727 24.1917 357.931C28.3843 351.723 32.5387 345.975 37.0748 339.764L30.5331 340.607L21.1786 340.489C17.6408 339.994 13.9394 339.105 10.8214 337.687L9.82928 337.236C6.54774 335.425 3.4461 333.218 0.764316 330.089Z" fill="white" />
		<path d="M6.86244 470.382C2.87226 468.249 -1.04154 465.196 -4.14851 461.873C-6.37512 459.567 -8.20894 456.905 -9.60205 454L-9.60206 464.936C-8.84464 465.354 -8.07784 465.764 -7.29975 466.168L-5.59901 466.941C-1.48887 468.811 2.436 469.96 6.86244 470.382Z" fill="white" />
	</g>
	<rect x="3.5" y="3.5" width="493" height="493" rx="15" stroke="white" stroke-width="7" />
	<defs>
		<clipPath id="clip0_10_48">
			<rect width="500" height="500" rx="20" fill="white" />
		</clipPath>
	</defs>
</svg>
