<svg width="200" height="200" viewBox="0 0 200 200" fill="none" xmlns="http://www.w3.org/2000/svg">
	<g clipPath="url(#clip0_2_2)">
		<rect width="200" height="200" rx="5" fill="#1273A9" />
		<path d="M285.894 -10.4824C285.894 -8.37632 285.897 -6.70272 286.177 -4.99777C285.897 -1.88875 285.251 1.9296 284.598 5.84094C283.665 9.45141 282.337 12.8912 280.751 16.2008C279.445 18.6078 277.883 20.9988 276.297 22.9043C273.778 25.8127 271.144 28.5066 268.158 30.9136C265.546 33.322 262.587 35.4504 259.695 37.3559C256.617 39.5623 252.955 41.4668 249.41 42.9711C246.705 44.3752 243.836 45.5773 240.664 46.2793C237.119 47.4828 233.273 48.172 229.448 48.6734C226.742 48.9743 224.043 49.1787 221.43 48.9781C220.497 48.9781 220.038 48.4614 219.851 47.7593C219.851 46.957 219.83 46.5631 220.297 46.0617C220.95 45.0588 221.612 44.1652 222.078 43.3629L236.817 24.4278L182.436 29.216C178.145 29.7174 173.932 29.7401 169.641 28.7372C166.096 28.2357 162.755 27.308 159.396 25.6031C155.571 23.6976 151.095 21.3066 146.803 18.8996L130.08 67.2168C124.949 68.7211 119.541 70.3435 114.41 72.0485C115.529 71.547 109.95 73.7597 104.165 75.9661C98.1012 78.3731 94.0047 80.2587 89.9931 82.3648C82.1564 86.4768 74.5786 91.1093 67.1151 96.4247C63.3834 99.0322 59.2872 102.139 55.089 105.348C52.57 107.454 49.8827 109.866 46.9906 112.574L38.6492 121.193C34.451 125.505 30.4429 130.603 27.2709 135.818C28.8569 136.32 30.4753 136.84 31.968 137.342C32.4345 137.542 33.0843 137.838 33.8306 138.038C37.5624 139.242 40.2605 139.952 42.7794 140.955C44.552 141.657 46.3113 142.342 48.0838 143.044C52.1888 145.05 56.204 146.654 60.029 148.659C61.5217 149.361 63.0996 150.094 64.6856 151.097C65.3386 151.498 66.3001 151.989 66.9531 152.49C66.9531 152.791 67.1151 152.768 67.1151 152.969C67.1151 152.969 67.3986 153.19 67.3986 153.491C67.5851 153.692 67.601 153.97 67.601 153.97C67.601 154.672 67.1239 155.206 66.7507 155.406C64.0452 156.108 61.1553 156.599 58.4498 156.799C54.1583 157.602 50.1519 158.495 46.1402 159.498C42.0353 160.401 38.0201 161.925 34.1951 163.329C31.5828 164.031 28.5874 165.199 25.9752 166.202C23.4563 167.205 21.0471 168.111 18.8081 168.813C18.1551 169.114 17.6743 169.313 17.6743 169.814C17.6743 170.316 18.1356 170.511 18.3222 170.511C18.5088 170.511 18.5246 170.511 18.5246 170.511L78.6149 175.125C79.2679 175.125 79.9054 175.343 80.5585 175.343C81.678 175.343 82.7998 175.125 83.9193 175.125C87.7443 174.624 91.3721 173.639 94.7307 172.034C99.2088 169.828 103.05 166.943 106.595 163.633C109.767 160.224 112.632 156.78 115.058 152.969C117.297 149.358 118.894 145.445 120.2 141.434C121.6 137.823 122.447 133.723 122.913 129.811C123.38 126.702 123.561 123.401 123.561 120.191C138.488 118.787 153.063 116.87 167.616 114.663C189.634 110.551 211.337 102.443 231.675 90.8094C237.272 87.7004 242.906 84.5994 248.317 81.1896C251.862 79.0834 255.87 76.3763 259.695 73.2673C263.054 70.3589 266.197 67.5305 269.089 64.8227C272.261 61.7137 275.336 58.1129 278.322 54.2016C283.639 47.2815 287.477 39.056 289.902 30.1301C290.835 26.1184 291.476 21.9933 292.129 17.6808C292.129 16.1764 292.413 14.7717 292.413 13.0667C292.413 11.1612 292.154 8.96527 291.967 7.05975C291.314 3.14842 290.358 -0.473201 289.052 -4.08367C288.119 -6.18977 287.013 -8.37632 285.894 -10.4824ZM63.1874 111.442C67.3856 111.442 70.8404 115.273 70.8404 119.887C70.8404 124.6 67.3856 128.331 63.1874 128.331C58.9892 128.331 55.5344 124.6 55.5344 119.887C55.5344 115.273 58.9892 111.442 63.1874 111.442Z" fill="white" />
		<path d="M230.386 145.961C207.902 160.202 183.086 169.629 157.057 173.741L138.958 175.346L120.486 176.549L100.988 176.349C106.119 172.939 110.783 168.927 114.888 164.314L118.9 159.299C122.259 154.686 124.964 149.872 126.737 144.557C127.576 141.147 128.323 138.038 128.976 134.728L130.095 127.006L149.5 124.799L164.707 122.693L174.969 120.988C180.847 119.785 186.631 118.08 192.509 116.174L211.261 108.953L225.815 101.933L240.648 94.0101L254.549 85.7863L265.464 77.8633L279.365 63.9229L289.721 48.6787L289.068 54.4956C286.362 73.2499 279.832 91.3023 270.222 107.449C263.692 118.581 255.389 127.908 245.779 135.129L240.648 139.041L230.386 145.961Z" fill="white" />
		<path d="M266.957 -36.5683C262.664 -39.8779 258.187 -42.7863 253.243 -45.1933L172.824 -81.0974L171.518 -81.7994C171.238 -81.7994 171.051 -82 170.771 -82C170.585 -82 170.118 -81.7994 169.932 -81.4985C169.465 -81.0974 169.465 -80.5959 169.465 -80.0945C169.465 -79.593 169.465 -79.0916 169.932 -78.891L192.322 -47.6003L197.267 -40.3794C198.386 -37.9724 198.853 -35.5654 199.039 -33.1584C199.039 -32.8576 199.039 -32.657 199.039 -32.4564C199.039 -30.25 198.573 -27.843 197.92 -25.6366L195.494 -20.1206L193.255 -16.5102C198.106 -17.5131 202.584 -18.4157 207.342 -19.218C213.406 -20.4215 219.844 -21.3241 226.561 -21.625C232.158 -21.8256 237.383 -22.0261 242.701 -22.0261C246.712 -21.8256 251.19 -21.625 255.668 -21.1235C258.654 -20.6221 261.266 -20.1206 263.972 -19.4186C266.024 -18.7166 268.077 -17.5131 269.849 -16.3096C272.741 -14.1032 274.98 -11.1948 276.286 -7.88517C277.406 -5.17732 278.152 -2.0683 278.339 0.840133C279.272 -1.86772 279.645 -4.47528 279.645 -7.38371C279.645 -7.88517 279.645 -8.08575 279.645 -8.5872C279.458 -12.1977 278.992 -15.6076 278.152 -19.218C276.753 -23.0291 274.98 -26.6395 272.928 -29.7485C271.155 -32.1555 269.196 -34.3619 267.144 -36.2674C267.144 -36.5683 266.957 -36.5683 266.957 -36.5683Z" fill="white" />
		<path d="M207.995 166.62C212.194 164.715 216.205 162.609 220.03 160.202C220.497 160.402 221.15 160.402 221.616 160.402C224.322 160.402 227.027 160.202 229.639 159.7C237.476 158.998 245.313 157.795 252.963 156.291C244.66 162.308 236.823 168.827 229.639 175.847C223.389 181.564 217.791 187.882 212.194 194C210.608 194 209.301 193.498 208.182 193.097C203.237 190.69 198.759 188.083 194.281 185.174C189.99 182.567 186.258 179.458 183.086 175.847C185.512 174.844 188.03 173.942 190.456 173.139C196.52 171.535 202.304 169.328 207.995 166.62Z" fill="white" />
	</g>
	<rect x="1.5" y="1.5" width="197" height="197" rx="3.5" stroke="white" strokeWidth="3" />
	<defs>
		<clipPath id="clip0_2_2">
			<rect width="200" height="200" rx="5" fill="white" />
		</clipPath>
	</defs>
</svg>
