<svg width="200" height="200" viewBox="0 0 200 200" fill="none" xmlns="http://www.w3.org/2000/svg">
<g clip-path="url(#clip0_2_2)">
<rect width="200" height="200" rx="5" fill="#1273A9"/>
<path d="M285.894 -10.4824C285.894 -8.37632 285.898 -6.70272 286.177 -4.99777C285.898 -1.88875 285.251 1.9296 284.598 5.84093C283.665 9.45141 282.338 12.8912 280.752 16.2008C279.445 18.6078 277.883 20.9988 276.297 22.9043C273.778 25.8127 271.144 28.5066 268.158 30.9136C265.546 33.322 262.588 35.4504 259.696 37.3559C256.617 39.5623 252.956 41.4668 249.411 42.9711C246.705 44.3752 243.836 45.5773 240.664 46.2793C237.119 47.4828 233.273 48.172 229.448 48.6734C226.742 48.9743 224.043 49.1787 221.431 48.9781C220.498 48.9781 220.038 48.4614 219.851 47.7593C219.851 46.957 219.83 46.5631 220.297 46.0617C220.95 45.0588 221.612 44.1652 222.078 43.3629L236.818 24.4278L182.437 29.216C178.145 29.7174 173.933 29.7401 169.641 28.7372C166.096 28.2357 162.755 27.308 159.397 25.6031C155.572 23.6976 151.095 21.3066 146.804 18.8996L130.081 67.2168C124.949 68.7211 119.541 70.3435 114.41 72.0485C115.53 71.547 109.95 73.7597 104.166 75.9661C98.1016 78.3731 94.0051 80.2587 89.9934 82.3648C82.1568 86.4767 74.5789 91.1093 67.1155 96.4247C63.3837 99.0322 59.2875 102.139 55.0893 105.348C52.5704 107.454 49.883 109.866 46.9909 112.574L38.6495 121.193C34.4513 125.505 30.4432 130.603 27.2713 135.818C28.8573 136.32 30.4756 136.84 31.9683 137.342C32.4348 137.542 33.0846 137.838 33.831 138.038C37.5627 139.242 40.2608 139.952 42.7797 140.955C44.5523 141.657 46.3116 142.342 48.0842 143.044C52.1891 145.05 56.2043 146.654 60.0293 148.659C61.522 149.361 63.0999 150.094 64.6859 151.097C65.339 151.498 66.3004 151.989 66.9535 152.49C66.9535 152.791 67.1155 152.768 67.1155 152.969C67.1155 152.969 67.3989 153.19 67.3989 153.491C67.5855 153.692 67.6014 153.97 67.6014 153.97C67.6014 154.672 67.1242 155.206 66.751 155.406C64.0455 156.108 61.1557 156.599 58.4502 156.799C54.1586 157.602 50.1522 158.495 46.1405 159.498C42.0356 160.401 38.0204 161.925 34.1954 163.329C36.8076 162.326 31.5832 164.332 34.1954 163.329C31.6765 164.332 27.739 165.798 25.5 166.5C24.8469 166.801 24.3662 167 24.3662 167.501C24.3662 168.003 24.8275 168.198 25.0141 168.198C25.2007 168.198 25.2165 168.198 25.2165 168.198L78.6152 175.125C79.2683 175.125 79.9058 175.343 80.5588 175.343C81.6783 175.343 82.8001 175.125 83.9196 175.125C87.7447 174.624 91.3724 173.639 94.731 172.034C99.2091 169.828 103.05 166.943 106.595 163.633C109.767 160.224 112.632 156.78 115.058 152.969C117.297 149.358 118.894 145.445 120.201 141.434C121.6 137.823 122.447 133.723 122.913 129.811C123.38 126.702 123.561 123.401 123.561 120.191C138.488 118.787 153.063 116.87 167.617 114.663C189.634 110.551 211.337 102.443 231.675 90.8094C237.273 87.7004 242.906 84.5994 248.317 81.1896C251.862 79.0834 255.87 76.3763 259.696 73.2673C263.054 70.3589 266.198 67.5305 269.09 64.8227C272.262 61.7137 275.337 58.1129 278.322 54.2016C283.64 47.2815 287.477 39.056 289.903 30.1301C290.836 26.1184 291.477 21.9933 292.13 17.6808C292.13 16.1764 292.413 14.7717 292.413 13.0667C292.413 11.1612 292.154 8.96527 291.968 7.05975C291.315 3.14842 290.359 -0.473201 289.052 -4.08367C288.12 -6.18977 287.014 -8.37632 285.894 -10.4824ZM63.1877 111.442C67.3859 111.442 70.8407 115.273 70.8407 119.887C70.8407 124.6 67.3859 128.331 63.1877 128.331C58.9895 128.331 55.5347 124.6 55.5347 119.887C55.5347 115.273 58.9895 111.442 63.1877 111.442Z" fill="white"/>
<path d="M230.386 145.961C207.902 160.202 183.086 169.629 157.057 173.741L138.958 175.346L120.486 176.549L100.988 176.349C106.119 172.939 110.783 168.927 114.888 164.314L118.9 159.299C122.259 154.686 124.964 149.872 126.737 144.557C127.576 141.147 128.323 138.038 128.976 134.728L130.095 127.006L149.5 124.799L164.707 122.693L174.969 120.988C180.847 119.785 186.631 118.08 192.509 116.174L211.261 108.953L225.815 101.933L240.648 94.0101L254.549 85.7863L265.464 77.8633L279.365 63.9229L289.721 48.6787L289.068 54.4956C286.362 73.2499 279.832 91.3023 270.222 107.449C263.692 118.581 255.389 127.908 245.779 135.129L240.648 139.041L230.386 145.961Z" fill="white"/>
<path d="M266.957 -36.5683C262.664 -39.8779 258.187 -42.7863 253.243 -45.1933L172.824 -81.0974L171.518 -81.7994C171.238 -81.7994 171.051 -82 170.771 -82C170.585 -82 170.118 -81.7994 169.932 -81.4985C169.465 -81.0974 169.465 -80.5959 169.465 -80.0945C169.465 -79.593 169.465 -79.0916 169.932 -78.891L192.322 -47.6003L197.267 -40.3794C198.386 -37.9724 198.853 -35.5654 199.039 -33.1584C199.039 -32.8576 199.039 -32.657 199.039 -32.4564C199.039 -30.25 198.573 -27.843 197.92 -25.6366L195.494 -20.1206L193.255 -16.5102C198.106 -17.5131 202.584 -18.4157 207.342 -19.218C213.406 -20.4215 219.844 -21.3241 226.561 -21.625C232.158 -21.8256 237.383 -22.0261 242.701 -22.0261C246.712 -21.8256 251.19 -21.625 255.668 -21.1235C258.654 -20.6221 261.266 -20.1206 263.972 -19.4186C266.024 -18.7166 268.077 -17.5131 269.849 -16.3096C272.741 -14.1032 274.98 -11.1948 276.286 -7.88517C277.406 -5.17732 278.152 -2.0683 278.339 0.840134C279.272 -1.86771 279.645 -4.47528 279.645 -7.38371C279.645 -7.88517 279.645 -8.08575 279.645 -8.5872C279.458 -12.1977 278.992 -15.6076 278.152 -19.218C276.753 -23.0291 274.98 -26.6395 272.928 -29.7485C271.155 -32.1555 269.196 -34.3619 267.144 -36.2674C267.144 -36.5683 266.957 -36.5683 266.957 -36.5683Z" fill="white"/>
<path d="M207.995 166.62C212.194 164.715 216.205 162.609 220.03 160.202C220.497 160.402 221.15 160.402 221.616 160.402C224.322 160.402 227.027 160.202 229.639 159.7C237.476 158.998 245.313 157.795 252.963 156.291C244.66 162.308 236.823 168.827 229.639 175.847C223.389 181.564 217.791 187.882 212.194 194C210.608 194 209.301 193.498 208.182 193.097C203.237 190.69 198.759 188.083 194.281 185.174C189.99 182.567 186.258 179.458 183.086 175.847C185.512 174.844 188.03 173.942 190.456 173.139C196.52 171.535 202.304 169.328 207.995 166.62Z" fill="white"/>
</g>
<rect x="1.5" y="1.5" width="197" height="197" rx="3.5" stroke="white" stroke-width="3"/>
<defs>
<clipPath id="clip0_2_2">
<rect width="200" height="200" rx="5" fill="white"/>
</clipPath>
</defs>
</svg>
